<svg width="24" height="24" viewBox="0 0 24 24" fill="none" xmlns="http://www.w3.org/2000/svg">
<g clip-path="url(#clip0)">
<path fill-rule="evenodd" clip-rule="evenodd" d="M3 9V21.75C3 21.9489 3.07902 22.1397 3.21967 22.2803C3.36032 22.421 3.55109 22.5 3.75 22.5H20.25C20.4489 22.5 20.6397 22.421 20.7803 22.2803C20.921 22.1397 21 21.9489 21 21.75V9H22.5V21.75C22.5 22.3467 22.2629 22.919 21.841 23.341C21.419 23.7629 20.8467 24 20.25 24H3.75C3.15326 24 2.58097 23.7629 2.15901 23.341C1.73705 22.919 1.5 22.3467 1.5 21.75V9H3ZM15 1.5C14.4033 1.5 13.831 1.73705 13.409 2.15901C12.9871 2.58097 12.75 3.15326 12.75 3.75C12.75 3.897 12.7995 3.99 12.93 4.0905C13.0845 4.212 13.338 4.3155 13.665 4.3905C14.0838 4.47976 14.5121 4.51655 14.94 4.5H14.9625L15 4.4985L15.0375 4.5015H15.0585C15.1854 4.50728 15.3126 4.50678 15.4395 4.5C15.6945 4.491 16.02 4.461 16.3365 4.3905C16.662 4.3185 16.9155 4.2135 17.0715 4.092C17.2005 3.993 17.25 3.897 17.25 3.7515C17.2502 3.4559 17.1921 3.16316 17.0792 2.89C16.9662 2.61685 16.8005 2.36863 16.5915 2.15954C16.3826 1.95045 16.1345 1.78458 15.8614 1.67141C15.5883 1.55825 15.2956 1.5 15 1.5ZM15 6H14.991C14.8281 6.00752 14.6649 6.00752 14.502 6C14.11 5.98596 13.7199 5.93727 13.3365 5.8545C12.912 5.76 12.4155 5.592 12.009 5.277C11.7712 5.10017 11.5786 4.86971 11.4467 4.60437C11.3148 4.33903 11.2474 4.0463 11.25 3.75C11.25 2.75544 11.6451 1.80161 12.3483 1.09835C13.0516 0.395088 14.0054 0 15 0C15.9946 0 16.9484 0.395088 17.6516 1.09835C18.3549 1.80161 18.75 2.75544 18.75 3.75C18.75 4.431 18.4245 4.9395 17.991 5.2755C17.586 5.5905 17.088 5.7585 16.6635 5.853C16.1199 5.97157 15.5635 6.02146 15.0075 6.0015H15V6Z" fill="white"/>
<path fill-rule="evenodd" clip-rule="evenodd" d="M9.00007 1.5C8.40333 1.5 7.83104 1.73705 7.40908 2.15901C6.98712 2.58097 6.75007 3.15326 6.75007 3.75C6.75007 3.897 6.79957 3.99 6.93007 4.0905C7.08457 4.212 7.33807 4.3155 7.66507 4.3905C8.08388 4.47976 8.51217 4.51655 8.94007 4.5H8.96257L9.00007 4.4985L9.03757 4.5015H9.05857L9.13807 4.503C9.54044 4.50665 9.9421 4.46845 10.3366 4.389C10.6621 4.317 10.9156 4.212 11.0716 4.0905C11.2006 3.9915 11.2501 3.8955 11.2501 3.75C11.2501 3.15326 11.013 2.58097 10.5911 2.15901C10.1691 1.73705 9.59681 1.5 9.00007 1.5ZM9.00007 6H8.99107C8.82816 6.00752 8.66499 6.00752 8.50207 6C8.11004 5.98596 7.72002 5.93727 7.33657 5.8545C6.91207 5.76 6.41557 5.592 6.00907 5.277C5.77131 5.10017 5.57865 4.86971 5.44676 4.60437C5.31487 4.33903 5.24748 4.0463 5.25007 3.75C5.25007 2.75544 5.64516 1.80161 6.34842 1.09835C7.05168 0.395088 8.00551 0 9.00007 0C9.99463 0 10.9485 0.395088 11.6517 1.09835C12.355 1.80161 12.7501 2.75544 12.7501 3.75C12.7501 4.431 12.4246 4.9395 11.9911 5.2755C11.5861 5.5905 11.0881 5.7585 10.6636 5.853C10.1204 5.97143 9.56461 6.02132 9.00907 6.0015H9.00007V6ZM11.2501 24V9H12.7501V24H11.2501Z" fill="white"/>
<path fill-rule="evenodd" clip-rule="evenodd" d="M22.5 6H1.5V7.5H22.5V6ZM1.5 4.5C1.10218 4.5 0.720644 4.65804 0.43934 4.93934C0.158035 5.22064 0 5.60218 0 6L0 7.5C0 7.89782 0.158035 8.27936 0.43934 8.56066C0.720644 8.84196 1.10218 9 1.5 9H22.5C22.8978 9 23.2794 8.84196 23.5607 8.56066C23.842 8.27936 24 7.89782 24 7.5V6C24 5.60218 23.842 5.22064 23.5607 4.93934C23.2794 4.65804 22.8978 4.5 22.5 4.5H1.5Z" fill="white"/>
</g>
<defs>
<clipPath id="clip0">
<rect width="24" height="24" fill="white"/>
</clipPath>
</defs>
</svg>
