<svg xmlns="http://www.w3.org/2000/svg" width="64" height="65" viewBox="0 0 64 65"><g><g><g><path  d="M57.819 45.586c-.137 3.112-.66 4.793-1.096 5.913a10.572 10.572 0 0 1-6.05 6.051c-1.121.436-2.814.959-5.915 1.096-3.361.15-4.37.186-12.873.186s-9.524-.037-12.874-.186c-3.112-.137-4.793-.66-5.913-1.096a9.807 9.807 0 0 1-3.66-2.378 9.908 9.908 0 0 1-2.379-3.66c-.436-1.12-.958-2.814-1.095-5.914-.15-3.361-.187-4.37-.187-12.874 0-8.503.037-9.524.187-12.873.137-3.112.66-4.793 1.095-5.914a9.687 9.687 0 0 1 2.391-3.66 9.893 9.893 0 0 1 3.66-2.378c1.12-.436 2.814-.959 5.914-1.096 3.362-.15 4.37-.187 12.873-.187 8.517 0 9.525.038 12.874.187 3.113.137 4.793.66 5.914 1.096a9.8 9.8 0 0 1 3.66 2.378 9.906 9.906 0 0 1 2.378 3.66c.436 1.12.959 2.814 1.096 5.914.15 3.362.187 4.37.187 12.873 0 8.504-.038 9.5-.187 12.862zm5.74-26.021c-.15-3.387-.698-5.715-1.482-7.732A15.553 15.553 0 0 0 58.39 6.18a15.685 15.685 0 0 0-5.64-3.673c-2.029-.785-4.345-1.332-7.73-1.481-3.413-.162-4.496-.2-13.148-.2-8.653 0-9.736.038-13.135.187-3.387.15-5.715.697-7.732 1.481a15.55 15.55 0 0 0-5.652 3.686 15.691 15.691 0 0 0-3.673 5.64C.896 13.85.349 16.166.199 19.552.037 22.964 0 24.047 0 32.7c0 8.653.037 9.736.187 13.135.15 3.386.697 5.714 1.482 7.731a15.716 15.716 0 0 0 3.685 5.653 15.685 15.685 0 0 0 5.64 3.672c2.03.785 4.345 1.332 7.731 1.482 3.399.15 4.482.187 13.135.187 8.653 0 9.736-.037 13.135-.187 3.387-.15 5.715-.697 7.732-1.482a16.302 16.302 0 0 0 9.325-9.325c.784-2.03 1.332-4.345 1.481-7.731.15-3.4.187-4.482.187-13.135 0-8.653-.012-9.736-.162-13.135z"/></g><g><path  d="M31.872 43.32c-5.863 0-10.62-4.756-10.62-10.62 0-5.865 4.757-10.62 10.62-10.62 5.865 0 10.62 4.755 10.62 10.62 0 5.864-4.755 10.62-10.62 10.62zm0-26.992C22.834 16.328 15.5 23.66 15.5 32.7s7.334 16.372 16.372 16.372c9.04 0 16.373-7.333 16.373-16.372 0-9.04-7.333-16.372-16.372-16.372z"/></g><g><path d="M52.714 15.68a3.822 3.822 0 1 1-7.645 0 3.822 3.822 0 0 1 7.645 0z"/></g></g></g></svg>