<svg width="24" height="24" viewBox="0 0 24 24" fill="none" xmlns="http://www.w3.org/2000/svg">
<path fill-rule="evenodd" clip-rule="evenodd" d="M8.78161 17.0306C8.71194 17.1005 8.62918 17.1559 8.53806 17.1937C8.44694 17.2315 8.34926 17.251 8.25061 17.251C8.15196 17.251 8.05428 17.2315 7.96316 17.1937C7.87205 17.1559 7.78928 17.1005 7.71961 17.0306L3.21961 12.5306C3.14977 12.461 3.09435 12.3782 3.05654 12.2871C3.01873 12.196 2.99927 12.0983 2.99927 11.9996C2.99927 11.901 3.01873 11.8033 3.05654 11.7122C3.09435 11.6211 3.14977 11.5383 3.21961 11.4686L7.71961 6.96864C7.86044 6.82781 8.05145 6.74869 8.25061 6.74869C8.44978 6.74869 8.64078 6.82781 8.78161 6.96864C8.92244 7.10947 9.00156 7.30047 9.00156 7.49964C9.00156 7.6988 8.92244 7.88981 8.78161 8.03064L4.81111 11.9996L8.78161 15.9686C8.85146 16.0383 8.90687 16.1211 8.94468 16.2122C8.98249 16.3033 9.00195 16.401 9.00195 16.4996C9.00195 16.5983 8.98249 16.696 8.94468 16.7871C8.90687 16.8782 8.85146 16.961 8.78161 17.0306Z" fill="white"/>
<path fill-rule="evenodd" clip-rule="evenodd" d="M21 12C21 12.1989 20.921 12.3897 20.7803 12.5303C20.6397 12.671 20.4489 12.75 20.25 12.75L4.5 12.75C4.30109 12.75 4.11032 12.671 3.96967 12.5303C3.82902 12.3897 3.75 12.1989 3.75 12C3.75 11.8011 3.82902 11.6103 3.96967 11.4697C4.11032 11.329 4.30109 11.25 4.5 11.25L20.25 11.25C20.4489 11.25 20.6397 11.329 20.7803 11.4697C20.921 11.6103 21 11.8011 21 12Z" fill="white"/>
</svg>
