<svg width="24" height="24" viewBox="0 0 24 24" fill="none" xmlns="http://www.w3.org/2000/svg">
<g clip-path="url(#clip0)">
<path fill-rule="evenodd" clip-rule="evenodd" d="M4.29893 22.2748C4.18193 22.9408 4.83893 23.4613 5.41793 23.1643L12.0029 19.7803L18.5864 23.1643C19.1654 23.4613 19.8224 22.9408 19.7054 22.2763L18.4604 15.1813L23.7449 10.1473C24.2384 9.67626 23.9819 8.81526 23.3204 8.72226L15.9734 7.67826L12.6974 1.18776C12.635 1.0562 12.5366 0.945037 12.4135 0.867201C12.2904 0.789365 12.1478 0.748047 12.0022 0.748047C11.8566 0.748047 11.7139 0.789365 11.5909 0.867201C11.4678 0.945037 11.3693 1.0562 11.3069 1.18776L8.03093 7.67976L0.683933 8.72376C0.0224333 8.81676 -0.234067 9.67776 0.259433 10.1488L5.54393 15.1828L4.29893 22.2778V22.2748ZM11.6564 18.1243L6.12743 20.9653L7.16843 15.0298C7.19282 14.8931 7.18328 14.7526 7.14065 14.6205C7.09801 14.4884 7.0236 14.3689 6.92393 14.2723L2.56493 10.1173L8.64293 9.25326C8.76879 9.23426 8.88816 9.18503 8.99083 9.10979C9.0935 9.03455 9.1764 8.93555 9.23243 8.82126L12.0029 3.33426L14.7719 8.82126C14.828 8.93555 14.9109 9.03455 15.0135 9.10979C15.1162 9.18503 15.2356 9.23426 15.3614 9.25326L21.4394 10.1158L17.0804 14.2708C16.9804 14.3674 16.9058 14.4873 16.8631 14.6196C16.8205 14.752 16.8112 14.8929 16.8359 15.0298L17.8769 20.9653L12.3479 18.1243C12.241 18.0691 12.1225 18.0404 12.0022 18.0404C11.8819 18.0404 11.7633 18.0691 11.6564 18.1243Z" fill="#007BFF"/>
</g>
<defs>
<clipPath id="clip0">
<rect width="24" height="24" fill="white"/>
</clipPath>
</defs>
</svg>
