<svg width="151" height="46" viewBox="0 0 151 46" fill="none" xmlns="http://www.w3.org/2000/svg">
<g clip-path="url(#clip0)">
<path d="M87.5473 15.6896C87.2734 15.0885 86.6855 14.6975 86.0266 14.6766L73.7723 14.2875L67.1351 3.98372C66.4205 2.87724 64.5001 3.09573 64.0524 4.33444L59.8996 15.8674L48.0646 18.9955C47.4272 19.1639 46.9407 19.679 46.8103 20.3242C46.68 20.9695 46.9244 21.6331 47.4458 22.037L57.1193 29.545L56.4375 41.7837C56.3991 42.4412 56.738 43.0627 57.3131 43.3873C57.6369 43.57 58.0037 43.6397 58.3595 43.5992C58.6329 43.5681 58.9005 43.4714 59.1414 43.3082L69.2665 36.4179L80.6998 40.8572C81.3136 41.0938 82.0115 40.9674 82.4951 40.5188C82.9808 40.0735 83.1698 39.392 82.9861 38.758L79.5574 26.9903L87.3125 17.4995C87.7301 16.9906 87.8211 16.2906 87.5473 15.6896ZM76.2976 25.5082C75.9386 25.9497 75.8177 26.5399 75.9775 27.0877L78.6804 36.3639L69.6684 32.863C69.4025 32.7609 69.1217 32.7266 68.8466 32.7579C68.5698 32.7894 68.3022 32.8861 68.068 33.0468L60.0861 38.4777L60.6239 28.8311C60.657 28.2648 60.4063 27.7152 59.9575 27.3674L52.3301 21.4484L61.6608 18.9797C62.2106 18.837 62.6536 18.4296 62.8471 17.8956L66.1214 8.80489L71.354 16.926C71.6625 17.403 72.1857 17.7004 72.7537 17.7177L82.4126 18.0259L76.2976 25.5082Z" fill="white"/>
</g>
<path d="M5.85033 37.04C6.34547 37.04 6.75058 37.0025 7.06566 36.9275C7.39575 36.8374 7.65832 36.7249 7.85338 36.5899C8.04843 36.4398 8.18347 36.2673 8.25849 36.0722C8.33351 35.8772 8.37102 35.6596 8.37102 35.4195C8.37102 34.9094 8.13095 34.4893 7.65082 34.1592C7.17069 33.8141 6.34547 33.4465 5.17515 33.0564C4.66501 32.8764 4.15487 32.6738 3.64473 32.4487C3.13459 32.2087 2.67697 31.9161 2.27185 31.571C1.86674 31.2109 1.53665 30.7833 1.28158 30.2881C1.02651 29.778 0.89898 29.1628 0.89898 28.4426C0.89898 27.7224 1.03402 27.0773 1.30409 26.5071C1.57416 25.922 1.95677 25.4268 2.4519 25.0217C2.94704 24.6166 3.5472 24.309 4.2524 24.099C4.95759 23.8739 5.7528 23.7614 6.63805 23.7614C7.68833 23.7614 8.59608 23.8739 9.36129 24.099C10.1265 24.324 10.7567 24.5716 11.2518 24.8417L10.239 27.6099C9.80391 27.3849 9.31628 27.1898 8.77613 27.0248C8.25099 26.8447 7.61331 26.7547 6.86311 26.7547C6.02288 26.7547 5.41521 26.8747 5.04011 27.1148C4.68001 27.3398 4.49996 27.6924 4.49996 28.1726C4.49996 28.4576 4.56748 28.6977 4.70252 28.8928C4.83755 29.0878 5.02511 29.2679 5.26517 29.4329C5.52024 29.583 5.80532 29.7255 6.12041 29.8605C6.45049 29.9806 6.81059 30.1081 7.2007 30.2431C8.01092 30.5432 8.71611 30.8433 9.31628 31.1434C9.91644 31.4285 10.4116 31.7661 10.8017 32.1562C11.2068 32.5463 11.5069 33.0039 11.7019 33.529C11.897 34.0542 11.9945 34.6918 11.9945 35.4421C11.9945 36.8975 11.4844 38.0303 10.4641 38.8405C9.44381 39.6357 7.90589 40.0333 5.85033 40.0333C5.16014 40.0333 4.53747 39.9883 3.98232 39.8983C3.42717 39.8232 2.93203 39.7257 2.49692 39.6057C2.0768 39.4857 1.7092 39.3581 1.39412 39.2231C1.09403 39.0881 0.838964 38.9605 0.628906 38.8405L1.61918 36.0497C2.0843 36.3048 2.65446 36.5374 3.32964 36.7474C4.01983 36.9425 4.86006 37.04 5.85033 37.04Z" fill="white"/>
<path d="M14.3584 24.9317L17.7118 24.3915V27.88H21.7404V30.6708H17.7118V34.8344C17.7118 35.5396 17.8318 36.1022 18.0719 36.5223C18.3269 36.9425 18.8296 37.1525 19.5798 37.1525C19.9399 37.1525 20.3075 37.1225 20.6826 37.0625C21.0727 36.9875 21.4253 36.8899 21.7404 36.7699L22.213 39.3806C21.8079 39.5457 21.3578 39.6882 20.8626 39.8082C20.3675 39.9283 19.7598 39.9883 19.0396 39.9883C18.1244 39.9883 17.3667 39.8683 16.7665 39.6282C16.1663 39.3731 15.6862 39.028 15.3261 38.5929C14.966 38.1428 14.711 37.6026 14.5609 36.9725C14.4259 36.3423 14.3584 35.6446 14.3584 34.8794V24.9317Z" fill="white"/>
<path d="M35.1046 33.7766C35.1046 34.7069 34.9696 35.5621 34.6995 36.3423C34.4294 37.1075 34.0393 37.7677 33.5292 38.3228C33.0191 38.863 32.4039 39.2831 31.6837 39.5832C30.9785 39.8833 30.1833 40.0333 29.298 40.0333C28.4278 40.0333 27.6326 39.8833 26.9124 39.5832C26.2072 39.2831 25.5995 38.863 25.0894 38.3228C24.5793 37.7677 24.1816 37.1075 23.8966 36.3423C23.6115 35.5621 23.4689 34.7069 23.4689 33.7766C23.4689 32.8463 23.6115 31.9986 23.8966 31.2334C24.1966 30.4682 24.6018 29.8155 25.1119 29.2754C25.637 28.7352 26.2522 28.3151 26.9574 28.015C27.6776 27.7149 28.4578 27.5649 29.298 27.5649C30.1533 27.5649 30.9335 27.7149 31.6387 28.015C32.3589 28.3151 32.974 28.7352 33.4842 29.2754C33.9943 29.8155 34.3919 30.4682 34.677 31.2334C34.9621 31.9986 35.1046 32.8463 35.1046 33.7766ZM31.6837 33.7766C31.6837 32.7413 31.4736 31.9311 31.0535 31.3459C30.6484 30.7458 30.0632 30.4457 29.298 30.4457C28.5328 30.4457 27.9402 30.7458 27.5201 31.3459C27.0999 31.9311 26.8899 32.7413 26.8899 33.7766C26.8899 34.8119 27.0999 35.6371 27.5201 36.2523C27.9402 36.8524 28.5328 37.1525 29.298 37.1525C30.0632 37.1525 30.6484 36.8524 31.0535 36.2523C31.4736 35.6371 31.6837 34.8119 31.6837 33.7766Z" fill="white"/>
<path d="M44.2066 33.439C44.2066 32.3587 44.0641 31.5935 43.779 31.1434C43.5089 30.6933 43.0363 30.4682 42.3611 30.4682C42.151 30.4682 41.9335 30.4832 41.7084 30.5132C41.4834 30.5282 41.2658 30.5507 41.0557 30.5807V39.7182H37.7023V28.2851C37.9874 28.2101 38.3175 28.1351 38.6926 28.06C39.0827 27.97 39.4878 27.895 39.9079 27.835C40.343 27.76 40.7857 27.7074 41.2358 27.6774C41.6859 27.6324 42.1285 27.6099 42.5637 27.6099C43.4189 27.6099 44.1091 27.7224 44.6342 27.9475C45.1744 28.1576 45.617 28.4126 45.9621 28.7127C46.4422 28.3676 46.9899 28.0975 47.605 27.9025C48.2352 27.7074 48.8129 27.6099 49.338 27.6099C50.2833 27.6099 51.056 27.745 51.6561 28.015C52.2713 28.2701 52.7589 28.6377 53.119 29.1178C53.4791 29.598 53.7267 30.1681 53.8617 30.8283C53.9968 31.4885 54.0643 32.2237 54.0643 33.0339V39.7182H50.7109V33.439C50.7109 32.3587 50.5683 31.5935 50.2833 31.1434C50.0132 30.6933 49.5406 30.4682 48.8654 30.4682C48.6853 30.4682 48.4302 30.5132 48.1002 30.6032C47.7851 30.6933 47.5225 30.8058 47.3124 30.9408C47.4175 31.2859 47.485 31.6535 47.515 32.0436C47.545 32.4187 47.56 32.8238 47.56 33.259V39.7182H44.2066V33.439Z" fill="white"/>
<path d="M88.937 23.9414C91.2777 23.9414 93.0707 24.3615 94.316 25.2018C95.5613 26.027 96.184 27.3173 96.184 29.0728C96.184 30.1681 95.9289 31.0609 95.4188 31.751C94.9237 32.4262 94.2035 32.9589 93.2582 33.349C93.5733 33.7391 93.9034 34.1892 94.2485 34.6994C94.5936 35.1945 94.9312 35.7196 95.2613 36.2748C95.6063 36.8149 95.9364 37.3851 96.2515 37.9852C96.5666 38.5704 96.8592 39.1481 97.1293 39.7182H93.1907C92.9056 39.2081 92.613 38.6904 92.313 38.1653C92.0279 37.6402 91.7278 37.13 91.4127 36.6349C91.1126 36.1397 90.8125 35.6746 90.5125 35.2395C90.2124 34.7894 89.9123 34.3843 89.6122 34.0242H87.8792V39.7182H84.3683V24.3465C85.1335 24.1965 85.9212 24.0915 86.7314 24.0314C87.5566 23.9714 88.2918 23.9414 88.937 23.9414ZM89.1396 26.9347C88.8845 26.9347 88.6519 26.9422 88.4419 26.9572C88.2468 26.9722 88.0593 26.9872 87.8792 27.0023V31.2334H88.8695C90.1899 31.2334 91.1351 31.0684 91.7053 30.7383C92.2754 30.4082 92.5605 29.8455 92.5605 29.0503C92.5605 28.2851 92.2679 27.745 91.6828 27.4299C91.1126 27.0998 90.2649 26.9347 89.1396 26.9347Z" fill="white"/>
<path d="M103.107 37.3776C103.437 37.3776 103.752 37.3701 104.052 37.3551C104.352 37.3401 104.592 37.3176 104.772 37.2876V34.7444C104.637 34.7144 104.435 34.6843 104.165 34.6543C103.895 34.6243 103.647 34.6093 103.422 34.6093C103.107 34.6093 102.807 34.6318 102.522 34.6768C102.252 34.7069 102.012 34.7744 101.802 34.8794C101.592 34.9844 101.426 35.127 101.306 35.307C101.186 35.4871 101.126 35.7121 101.126 35.9822C101.126 36.5073 101.299 36.8749 101.644 37.085C102.004 37.2801 102.492 37.3776 103.107 37.3776ZM102.837 27.5649C103.827 27.5649 104.652 27.6774 105.313 27.9025C105.973 28.1276 106.498 28.4501 106.888 28.8703C107.293 29.2904 107.578 29.8005 107.743 30.4007C107.908 31.0008 107.991 31.6685 107.991 32.4037V39.3806C107.511 39.4857 106.843 39.6057 105.988 39.7407C105.132 39.8908 104.097 39.9658 102.882 39.9658C102.117 39.9658 101.419 39.8983 100.789 39.7632C100.174 39.6282 99.641 39.4106 99.1909 39.1106C98.7407 38.7955 98.3956 38.3904 98.1556 37.8952C97.9155 37.4001 97.7955 36.7924 97.7955 36.0722C97.7955 35.382 97.9305 34.7969 98.2006 34.3167C98.4857 33.8366 98.8608 33.454 99.3259 33.1689C99.791 32.8839 100.324 32.6813 100.924 32.5613C101.524 32.4262 102.147 32.3587 102.792 32.3587C103.227 32.3587 103.61 32.3812 103.94 32.4262C104.285 32.4562 104.562 32.5013 104.772 32.5613V32.2462C104.772 31.676 104.6 31.2184 104.255 30.8733C103.91 30.5282 103.309 30.3557 102.454 30.3557C101.884 30.3557 101.321 30.4007 100.766 30.4907C100.211 30.5657 99.731 30.6783 99.3259 30.8283L98.8983 28.1276C99.0933 28.0675 99.3334 28.0075 99.6185 27.9475C99.9186 27.8725 100.241 27.8125 100.586 27.7675C100.931 27.7074 101.291 27.6624 101.667 27.6324C102.057 27.5874 102.447 27.5649 102.837 27.5649Z" fill="white"/>
<path d="M110.911 24.9317L114.264 24.3915V27.88H118.293V30.6708H114.264V34.8344C114.264 35.5396 114.384 36.1022 114.624 36.5223C114.879 36.9425 115.382 37.1525 116.132 37.1525C116.492 37.1525 116.86 37.1225 117.235 37.0625C117.625 36.9875 117.978 36.8899 118.293 36.7699L118.765 39.3806C118.36 39.5457 117.91 39.6882 117.415 39.8082C116.92 39.9283 116.312 39.9883 115.592 39.9883C114.677 39.9883 113.919 39.8683 113.319 39.6282C112.719 39.3731 112.238 39.028 111.878 38.5929C111.518 38.1428 111.263 37.6026 111.113 36.9725C110.978 36.3423 110.911 35.6446 110.911 34.8794V24.9317Z" fill="white"/>
<path d="M124.377 39.7182H121.023V27.88H124.377V39.7182ZM124.692 24.4591C124.692 25.0742 124.489 25.5619 124.084 25.922C123.694 26.2671 123.229 26.4396 122.689 26.4396C122.149 26.4396 121.676 26.2671 121.271 25.922C120.881 25.5619 120.686 25.0742 120.686 24.4591C120.686 23.8439 120.881 23.3638 121.271 23.0187C121.676 22.6586 122.149 22.4785 122.689 22.4785C123.229 22.4785 123.694 22.6586 124.084 23.0187C124.489 23.3638 124.692 23.8439 124.692 24.4591Z" fill="white"/>
<path d="M127.529 28.2851C128.099 28.1201 128.834 27.97 129.735 27.835C130.635 27.6849 131.58 27.6099 132.57 27.6099C133.576 27.6099 134.408 27.745 135.069 28.015C135.744 28.2701 136.276 28.6377 136.667 29.1178C137.057 29.598 137.334 30.1681 137.499 30.8283C137.664 31.4885 137.747 32.2237 137.747 33.0339V39.7182H134.393V33.439C134.393 32.3587 134.251 31.5935 133.966 31.1434C133.681 30.6933 133.148 30.4682 132.368 30.4682C132.128 30.4682 131.873 30.4832 131.603 30.5132C131.333 30.5282 131.093 30.5507 130.883 30.5807V39.7182H127.529V28.2851Z" fill="white"/>
<path d="M143.64 33.4165C143.64 35.292 144.398 36.2298 145.914 36.2298C146.259 36.2298 146.581 36.1848 146.881 36.0947C147.181 36.0047 147.437 35.8997 147.647 35.7796V30.4232C147.482 30.3932 147.286 30.3707 147.061 30.3557C146.836 30.3257 146.574 30.3107 146.274 30.3107C145.388 30.3107 144.728 30.6032 144.293 31.1884C143.858 31.7736 143.64 32.5163 143.64 33.4165ZM151 38.2328C151 40.1683 150.505 41.6012 149.515 42.5315C148.539 43.4767 147.024 43.9494 144.968 43.9494C144.248 43.9494 143.528 43.8819 142.808 43.7468C142.088 43.6268 141.42 43.4617 140.805 43.2517L141.39 40.4384C141.915 40.6485 142.463 40.8135 143.033 40.9336C143.618 41.0536 144.278 41.1136 145.013 41.1136C145.974 41.1136 146.649 40.9035 147.039 40.4834C147.444 40.0633 147.647 39.5232 147.647 38.863V38.4354C147.286 38.6004 146.911 38.728 146.521 38.818C146.146 38.893 145.734 38.9305 145.283 38.9305C143.648 38.9305 142.395 38.4504 141.525 37.4901C140.655 36.5148 140.22 35.157 140.22 33.4165C140.22 32.5463 140.355 31.7585 140.625 31.0534C140.895 30.3332 141.285 29.718 141.795 29.2079C142.32 28.6977 142.958 28.3076 143.708 28.0375C144.458 27.7525 145.306 27.6099 146.251 27.6099C146.656 27.6099 147.069 27.6324 147.489 27.6774C147.924 27.7074 148.352 27.7525 148.772 27.8125C149.192 27.8725 149.59 27.9475 149.965 28.0375C150.355 28.1126 150.7 28.1951 151 28.2851V38.2328Z" fill="white"/>
<defs>
<clipPath id="clip0">
<rect width="41.1693" height="41.1693" fill="white" transform="translate(44.9434 4.6543) rotate(-6.49076)"/>
</clipPath>
</defs>
</svg>
