<svg width="116" height="35" viewBox="0 0 116 35" fill="none" xmlns="http://www.w3.org/2000/svg">
<g clip-path="url(#clip0)">
<path d="M66.2833 11.8504C66.0764 11.3964 65.6324 11.101 65.1346 11.0853L55.8784 10.7914L50.8649 3.00841C50.3252 2.17264 48.8746 2.33767 48.5364 3.27333L45.3996 11.9848L36.4601 14.3476C35.9786 14.4747 35.6111 14.8638 35.5127 15.3512C35.4142 15.8386 35.5989 16.3399 35.9927 16.645L43.2995 22.3161L42.7846 31.5606C42.7555 32.0572 43.0115 32.5267 43.4459 32.7719C43.6905 32.9098 43.9675 32.9625 44.2363 32.9319C44.4428 32.9084 44.645 32.8354 44.8269 32.7121L52.4749 27.5075L61.111 30.8608C61.5747 31.0395 62.1019 30.944 62.4671 30.6052C62.834 30.2688 62.9767 29.754 62.838 29.2751L60.2482 20.3864L66.1059 13.2176C66.4214 12.8331 66.4902 12.3044 66.2833 11.8504ZM57.7859 19.2669C57.5147 19.6004 57.4233 20.0462 57.5441 20.46L59.5857 27.4668L52.7785 24.8223C52.5777 24.7452 52.3655 24.7194 52.1578 24.743C51.9487 24.7668 51.7465 24.8398 51.5696 24.9612L45.5405 29.0634L45.9467 21.7769C45.9717 21.3491 45.7824 20.934 45.4434 20.6713L39.682 16.2003L46.73 14.3356C47.1452 14.2278 47.4799 13.9201 47.626 13.5167L50.0993 6.65008L54.0517 12.7844C54.2847 13.1446 54.6799 13.3693 55.109 13.3823L62.4048 13.6152L57.7859 19.2669Z" fill="#007BFF"/>
</g>
<path d="M4.573 27.977C4.947 27.977 5.253 27.9487 5.491 27.892C5.74033 27.824 5.93867 27.739 6.086 27.637C6.23333 27.5237 6.33533 27.3933 6.392 27.246C6.44867 27.0987 6.477 26.9343 6.477 26.753C6.477 26.3677 6.29567 26.0503 5.933 25.801C5.57033 25.5403 4.947 25.2627 4.063 24.968C3.67767 24.832 3.29233 24.679 2.907 24.509C2.52167 24.3277 2.176 24.1067 1.87 23.846C1.564 23.574 1.31467 23.251 1.122 22.877C0.929333 22.4917 0.833 22.027 0.833 21.483C0.833 20.939 0.935 20.4517 1.139 20.021C1.343 19.579 1.632 19.205 2.006 18.899C2.38 18.593 2.83333 18.3607 3.366 18.202C3.89867 18.032 4.49933 17.947 5.168 17.947C5.96133 17.947 6.647 18.032 7.225 18.202C7.803 18.372 8.279 18.559 8.653 18.763L7.888 20.854C7.55933 20.684 7.191 20.5367 6.783 20.412C6.38633 20.276 5.90467 20.208 5.338 20.208C4.70333 20.208 4.24433 20.2987 3.961 20.48C3.689 20.65 3.553 20.9163 3.553 21.279C3.553 21.4943 3.604 21.6757 3.706 21.823C3.808 21.9703 3.94967 22.1063 4.131 22.231C4.32367 22.3443 4.539 22.452 4.777 22.554C5.02633 22.6447 5.29833 22.741 5.593 22.843C6.205 23.0697 6.73767 23.2963 7.191 23.523C7.64433 23.7383 8.01833 23.9933 8.313 24.288C8.619 24.5827 8.84567 24.9283 8.993 25.325C9.14033 25.7217 9.214 26.2033 9.214 26.77C9.214 27.8693 8.82867 28.725 8.058 29.337C7.28733 29.9377 6.12567 30.238 4.573 30.238C4.05167 30.238 3.58133 30.204 3.162 30.136C2.74267 30.0793 2.36867 30.0057 2.04 29.915C1.72267 29.8243 1.445 29.728 1.207 29.626C0.980333 29.524 0.787667 29.4277 0.629 29.337L1.377 27.229C1.72833 27.4217 2.159 27.5973 2.669 27.756C3.19033 27.9033 3.825 27.977 4.573 27.977ZM10.9995 18.831L13.5325 18.423V21.058H16.5755V23.166H13.5325V26.311C13.5325 26.8437 13.6232 27.2687 13.8045 27.586C13.9972 27.9033 14.3769 28.062 14.9435 28.062C15.2155 28.062 15.4932 28.0393 15.7765 27.994C16.0712 27.9373 16.3375 27.8637 16.5755 27.773L16.9325 29.745C16.6265 29.8697 16.2865 29.9773 15.9125 30.068C15.5385 30.1587 15.0795 30.204 14.5355 30.204C13.8442 30.204 13.2719 30.1133 12.8185 29.932C12.3652 29.7393 12.0025 29.4787 11.7305 29.15C11.4585 28.81 11.2659 28.402 11.1525 27.926C11.0505 27.45 10.9995 26.923 10.9995 26.345V18.831ZM26.6702 25.512C26.6702 26.2147 26.5682 26.8607 26.3642 27.45C26.1602 28.028 25.8655 28.5267 25.4802 28.946C25.0949 29.354 24.6302 29.6713 24.0862 29.898C23.5535 30.1247 22.9529 30.238 22.2842 30.238C21.6269 30.238 21.0262 30.1247 20.4822 29.898C19.9495 29.6713 19.4905 29.354 19.1052 28.946C18.7199 28.5267 18.4195 28.028 18.2042 27.45C17.9889 26.8607 17.8812 26.2147 17.8812 25.512C17.8812 24.8093 17.9889 24.169 18.2042 23.591C18.4309 23.013 18.7369 22.52 19.1222 22.112C19.5189 21.704 19.9835 21.3867 20.5162 21.16C21.0602 20.9333 21.6495 20.82 22.2842 20.82C22.9302 20.82 23.5195 20.9333 24.0522 21.16C24.5962 21.3867 25.0609 21.704 25.4462 22.112C25.8315 22.52 26.1319 23.013 26.3472 23.591C26.5625 24.169 26.6702 24.8093 26.6702 25.512ZM24.0862 25.512C24.0862 24.73 23.9275 24.118 23.6102 23.676C23.3042 23.2227 22.8622 22.996 22.2842 22.996C21.7062 22.996 21.2585 23.2227 20.9412 23.676C20.6239 24.118 20.4652 24.73 20.4652 25.512C20.4652 26.294 20.6239 26.9173 20.9412 27.382C21.2585 27.8353 21.7062 28.062 22.2842 28.062C22.8622 28.062 23.3042 27.8353 23.6102 27.382C23.9275 26.9173 24.0862 26.294 24.0862 25.512ZM33.5454 25.257C33.5454 24.441 33.4377 23.863 33.2224 23.523C33.0184 23.183 32.6614 23.013 32.1514 23.013C31.9927 23.013 31.8284 23.0243 31.6584 23.047C31.4884 23.0583 31.324 23.0753 31.1654 23.098V30H28.6324V21.364C28.8477 21.3073 29.097 21.2507 29.3804 21.194C29.675 21.126 29.981 21.0693 30.2984 21.024C30.627 20.9673 30.9614 20.9277 31.3014 20.905C31.6414 20.871 31.9757 20.854 32.3044 20.854C32.9504 20.854 33.4717 20.939 33.8684 21.109C34.2764 21.2677 34.6107 21.4603 34.8714 21.687C35.234 21.4263 35.6477 21.2223 36.1124 21.075C36.5884 20.9277 37.0247 20.854 37.4214 20.854C38.1354 20.854 38.7191 20.956 39.1724 21.16C39.637 21.3527 40.0054 21.6303 40.2774 21.993C40.5494 22.3557 40.7364 22.7863 40.8384 23.285C40.9404 23.7837 40.9914 24.339 40.9914 24.951V30H38.4584V25.257C38.4584 24.441 38.3507 23.863 38.1354 23.523C37.9314 23.183 37.5744 23.013 37.0644 23.013C36.9284 23.013 36.7357 23.047 36.4864 23.115C36.2484 23.183 36.05 23.268 35.8914 23.37C35.9707 23.6307 36.0217 23.9083 36.0444 24.203C36.067 24.4863 36.0784 24.7923 36.0784 25.121V30H33.5454V25.257ZM67.3325 18.083C69.1005 18.083 70.4548 18.4003 71.3955 19.035C72.3362 19.6583 72.8065 20.633 72.8065 21.959C72.8065 22.7863 72.6138 23.4607 72.2285 23.982C71.8545 24.492 71.3105 24.8943 70.5965 25.189C70.8345 25.4837 71.0838 25.8237 71.3445 26.209C71.6052 26.583 71.8602 26.9797 72.1095 27.399C72.3702 27.807 72.6195 28.2377 72.8575 28.691C73.0955 29.133 73.3165 29.5693 73.5205 30H70.5455C70.3302 29.6147 70.1092 29.2237 69.8825 28.827C69.6672 28.4303 69.4405 28.045 69.2025 27.671C68.9758 27.297 68.7492 26.9457 68.5225 26.617C68.2958 26.277 68.0692 25.971 67.8425 25.699H66.5335V30H63.8815V18.389C64.4595 18.2757 65.0545 18.1963 65.6665 18.151C66.2898 18.1057 66.8452 18.083 67.3325 18.083ZM67.4855 20.344C67.2928 20.344 67.1172 20.3497 66.9585 20.361C66.8112 20.3723 66.6695 20.3837 66.5335 20.395V23.591H67.2815C68.2788 23.591 68.9928 23.4663 69.4235 23.217C69.8542 22.9677 70.0695 22.5427 70.0695 21.942C70.0695 21.364 69.8485 20.956 69.4065 20.718C68.9758 20.4687 68.3355 20.344 67.4855 20.344ZM78.0357 28.232C78.285 28.232 78.523 28.2263 78.7497 28.215C78.9764 28.2037 79.1577 28.1867 79.2937 28.164V26.243C79.1917 26.2203 79.0387 26.1977 78.8347 26.175C78.6307 26.1523 78.4437 26.141 78.2737 26.141C78.0357 26.141 77.809 26.158 77.5937 26.192C77.3897 26.2147 77.2084 26.2657 77.0497 26.345C76.891 26.4243 76.7664 26.532 76.6757 26.668C76.585 26.804 76.5397 26.974 76.5397 27.178C76.5397 27.5747 76.67 27.8523 76.9307 28.011C77.2027 28.1583 77.571 28.232 78.0357 28.232ZM77.8317 20.82C78.5797 20.82 79.203 20.905 79.7017 21.075C80.2004 21.245 80.597 21.4887 80.8917 21.806C81.1977 22.1233 81.413 22.5087 81.5377 22.962C81.6624 23.4153 81.7247 23.9197 81.7247 24.475V29.745C81.362 29.8243 80.8577 29.915 80.2117 30.017C79.5657 30.1303 78.7837 30.187 77.8657 30.187C77.2877 30.187 76.7607 30.136 76.2847 30.034C75.82 29.932 75.4177 29.7677 75.0777 29.541C74.7377 29.303 74.477 28.997 74.2957 28.623C74.1144 28.249 74.0237 27.79 74.0237 27.246C74.0237 26.7247 74.1257 26.2827 74.3297 25.92C74.545 25.5573 74.8284 25.2683 75.1797 25.053C75.531 24.8377 75.9334 24.6847 76.3867 24.594C76.84 24.492 77.3104 24.441 77.7977 24.441C78.1264 24.441 78.4154 24.458 78.6647 24.492C78.9254 24.5147 79.135 24.5487 79.2937 24.594V24.356C79.2937 23.9253 79.1634 23.5797 78.9027 23.319C78.642 23.0583 78.1887 22.928 77.5427 22.928C77.112 22.928 76.687 22.962 76.2677 23.03C75.8484 23.0867 75.4857 23.1717 75.1797 23.285L74.8567 21.245C75.004 21.1997 75.1854 21.1543 75.4007 21.109C75.6274 21.0523 75.871 21.007 76.1317 20.973C76.3924 20.9277 76.6644 20.8937 76.9477 20.871C77.2424 20.837 77.537 20.82 77.8317 20.82ZM83.9302 18.831L86.4632 18.423V21.058H89.5062V23.166H86.4632V26.311C86.4632 26.8437 86.5539 27.2687 86.7352 27.586C86.9279 27.9033 87.3075 28.062 87.8742 28.062C88.1462 28.062 88.4239 28.0393 88.7072 27.994C89.0019 27.9373 89.2682 27.8637 89.5062 27.773L89.8632 29.745C89.5572 29.8697 89.2172 29.9773 88.8432 30.068C88.4692 30.1587 88.0102 30.204 87.4662 30.204C86.7749 30.204 86.2025 30.1133 85.7492 29.932C85.2959 29.7393 84.9332 29.4787 84.6612 29.15C84.3892 28.81 84.1965 28.402 84.0832 27.926C83.9812 27.45 83.9302 26.923 83.9302 26.345V18.831ZM94.1019 30H91.5689V21.058H94.1019V30ZM94.3399 18.474C94.3399 18.9387 94.1869 19.307 93.8809 19.579C93.5862 19.8397 93.2349 19.97 92.8269 19.97C92.4189 19.97 92.0619 19.8397 91.7559 19.579C91.4612 19.307 91.3139 18.9387 91.3139 18.474C91.3139 18.0093 91.4612 17.6467 91.7559 17.386C92.0619 17.114 92.4189 16.978 92.8269 16.978C93.2349 16.978 93.5862 17.114 93.8809 17.386C94.1869 17.6467 94.3399 18.0093 94.3399 18.474ZM96.483 21.364C96.9136 21.2393 97.469 21.126 98.149 21.024C98.829 20.9107 99.543 20.854 100.291 20.854C101.05 20.854 101.679 20.956 102.178 21.16C102.688 21.3527 103.09 21.6303 103.385 21.993C103.68 22.3557 103.889 22.7863 104.014 23.285C104.139 23.7837 104.201 24.339 104.201 24.951V30H101.668V25.257C101.668 24.441 101.56 23.863 101.345 23.523C101.13 23.183 100.727 23.013 100.138 23.013C99.9566 23.013 99.764 23.0243 99.56 23.047C99.356 23.0583 99.1746 23.0753 99.016 23.098V30H96.483V21.364ZM108.653 25.24C108.653 26.6567 109.225 27.365 110.37 27.365C110.63 27.365 110.874 27.331 111.101 27.263C111.327 27.195 111.52 27.1157 111.679 27.025V22.979C111.554 22.9563 111.407 22.9393 111.237 22.928C111.067 22.9053 110.868 22.894 110.642 22.894C109.973 22.894 109.474 23.115 109.146 23.557C108.817 23.999 108.653 24.56 108.653 25.24ZM114.212 28.878C114.212 30.34 113.838 31.4223 113.09 32.125C112.353 32.839 111.208 33.196 109.656 33.196C109.112 33.196 108.568 33.145 108.024 33.043C107.48 32.9523 106.975 32.8277 106.511 32.669L106.953 30.544C107.349 30.7027 107.763 30.8273 108.194 30.918C108.636 31.0087 109.134 31.054 109.69 31.054C110.415 31.054 110.925 30.8953 111.22 30.578C111.526 30.2607 111.679 29.8527 111.679 29.354V29.031C111.407 29.1557 111.123 29.252 110.829 29.32C110.545 29.3767 110.234 29.405 109.894 29.405C108.658 29.405 107.712 29.0423 107.055 28.317C106.397 27.5803 106.069 26.5547 106.069 25.24C106.069 24.5827 106.171 23.9877 106.375 23.455C106.579 22.911 106.873 22.4463 107.259 22.061C107.655 21.6757 108.137 21.381 108.704 21.177C109.27 20.9617 109.911 20.854 110.625 20.854C110.931 20.854 111.242 20.871 111.56 20.905C111.888 20.9277 112.211 20.9617 112.529 21.007C112.846 21.0523 113.146 21.109 113.43 21.177C113.724 21.2337 113.985 21.296 114.212 21.364V28.878Z" fill="#171818"/>
<defs>
<clipPath id="clip0">
<rect width="31.0972" height="31.0972" fill="white" transform="translate(34.1016 3.51465) rotate(-6.49076)"/>
</clipPath>
</defs>
</svg>
