<svg width="16" height="16" viewBox="0 0 16 16" fill="none" xmlns="http://www.w3.org/2000/svg">
<g clip-path="url(#clip0)">
<path fill-rule="evenodd" clip-rule="evenodd" d="M11 14C11 14 12 14 12 13C12 12 11 9 6 9C1 9 0 12 0 13C0 14 1 14 1 14H11ZM1.005 13.056V13.054V13.056ZM1.022 13H10.978C10.9827 12.9995 10.9874 12.9988 10.992 12.998L11 12.996C10.999 12.75 10.846 12.01 10.168 11.332C9.516 10.68 8.289 10 6 10C3.71 10 2.484 10.68 1.832 11.332C1.154 12.01 1.002 12.75 1 12.996C1.00732 12.9974 1.01465 12.9987 1.022 13ZM10.996 13.056V13.054V13.056ZM6 7C6.53043 7 7.03914 6.78929 7.41421 6.41421C7.78929 6.03914 8 5.53043 8 5C8 4.46957 7.78929 3.96086 7.41421 3.58579C7.03914 3.21071 6.53043 3 6 3C5.46957 3 4.96086 3.21071 4.58579 3.58579C4.21071 3.96086 4 4.46957 4 5C4 5.53043 4.21071 6.03914 4.58579 6.41421C4.96086 6.78929 5.46957 7 6 7ZM9 5C9 5.79565 8.68393 6.55871 8.12132 7.12132C7.55871 7.68393 6.79565 8 6 8C5.20435 8 4.44129 7.68393 3.87868 7.12132C3.31607 6.55871 3 5.79565 3 5C3 4.20435 3.31607 3.44129 3.87868 2.87868C4.44129 2.31607 5.20435 2 6 2C6.79565 2 7.55871 2.31607 8.12132 2.87868C8.68393 3.44129 9 4.20435 9 5ZM15.854 5.146C15.9006 5.19245 15.9375 5.24762 15.9627 5.30837C15.9879 5.36911 16.0009 5.43423 16.0009 5.5C16.0009 5.56577 15.9879 5.63089 15.9627 5.69163C15.9375 5.75238 15.9006 5.80755 15.854 5.854L12.854 8.854C12.8076 8.90056 12.7524 8.93751 12.6916 8.96271C12.6309 8.98792 12.5658 9.00089 12.5 9.00089C12.4342 9.00089 12.3691 8.98792 12.3084 8.96271C12.2476 8.93751 12.1924 8.90056 12.146 8.854L10.646 7.354C10.5521 7.26011 10.4994 7.13278 10.4994 7C10.4994 6.86722 10.5521 6.73989 10.646 6.646C10.7399 6.55211 10.8672 6.49937 11 6.49937C11.1328 6.49937 11.2601 6.55211 11.354 6.646L12.5 7.793L15.146 5.146C15.1924 5.09944 15.2476 5.06249 15.3084 5.03729C15.3691 5.01208 15.4342 4.99911 15.5 4.99911C15.5658 4.99911 15.6309 5.01208 15.6916 5.03729C15.7524 5.06249 15.8076 5.09944 15.854 5.146Z" fill="#007BFF"/>
</g>
<defs>
<clipPath id="clip0">
<rect width="16" height="16" fill="white"/>
</clipPath>
</defs>
</svg>
