<svg width="16" height="16" viewBox="0 0 16 16" fill="none" xmlns="http://www.w3.org/2000/svg">
<g clip-path="url(#clip0)">
<path fill-rule="evenodd" clip-rule="evenodd" d="M0.124105 11.17C0.17096 11.1167 0.228636 11.0739 0.293294 11.0446C0.357953 11.0153 0.428113 11.0001 0.499105 11H5.9991C6.13171 11 6.25889 11.0527 6.35266 11.1464C6.44643 11.2402 6.4991 11.3674 6.4991 11.5C6.4991 11.8978 6.65714 12.2794 6.93844 12.5607C7.21975 12.842 7.60128 13 7.99911 13C8.39693 13 8.77846 12.842 9.05977 12.5607C9.34107 12.2794 9.49911 11.8978 9.49911 11.5C9.49911 11.3674 9.55178 11.2402 9.64555 11.1464C9.73932 11.0527 9.8665 11 9.99911 11H15.4991C15.57 11 15.6401 11.0151 15.7047 11.0443C15.7693 11.0734 15.8269 11.116 15.8738 11.1691C15.9207 11.2223 15.9558 11.2848 15.9767 11.3525C15.9976 11.4203 16.0039 11.4917 15.9951 11.562L15.6051 14.686C15.5598 15.0489 15.3834 15.3827 15.1092 15.6247C14.835 15.8667 14.4818 16.0001 14.1161 16H1.88211C1.51639 16.0001 1.16323 15.8667 0.889021 15.6247C0.614813 15.3827 0.438453 15.0489 0.393105 14.686L0.00310513 11.562C-0.00574059 11.4917 0.000473343 11.4202 0.0213346 11.3525C0.0421959 11.2847 0.0772275 11.2222 0.124105 11.169V11.17ZM1.06511 12L1.38511 14.562C1.40024 14.6831 1.45912 14.7944 1.55066 14.8751C1.6422 14.9558 1.76009 15.0002 1.88211 15H14.1161C14.238 15 14.3556 14.9554 14.4469 14.8748C14.5383 14.7941 14.597 14.6829 14.6121 14.562L14.9321 12H10.4491C10.3343 12.5651 10.0277 13.0732 9.58123 13.4382C9.13473 13.8031 8.57578 14.0025 7.99911 14.0025C7.42243 14.0025 6.86348 13.8031 6.41698 13.4382C5.97047 13.0732 5.66386 12.5651 5.54911 12H1.06511ZM3.80911 0.563C3.94949 0.387503 4.12752 0.245795 4.33003 0.148346C4.53254 0.050898 4.75437 0.000200429 4.9791 0L11.0191 0C11.2438 0.000200429 11.4657 0.050898 11.6682 0.148346C11.8707 0.245795 12.0487 0.387503 12.1891 0.563L15.8891 5.188C15.9646 5.29204 15.9971 5.42114 15.9799 5.54851C15.9627 5.67588 15.8971 5.79173 15.7967 5.87202C15.6964 5.95231 15.5689 5.99087 15.4409 5.97969C15.3129 5.96852 15.194 5.90846 15.1091 5.812L11.4091 1.188C11.3623 1.12944 11.303 1.08214 11.2355 1.0496C11.168 1.01706 11.094 1.00011 11.0191 1H4.9791C4.90416 1.00011 4.83021 1.01706 4.7627 1.0496C4.6952 1.08214 4.63587 1.12944 4.58911 1.188L0.889105 5.812C0.849385 5.86676 0.798967 5.91288 0.740902 5.94759C0.682837 5.9823 0.618334 6.00486 0.551296 6.01391C0.484259 6.02297 0.416081 6.01832 0.35089 6.00027C0.285699 5.98221 0.22485 5.95111 0.172028 5.90885C0.119205 5.86659 0.075506 5.81405 0.0435767 5.75441C0.0116474 5.69478 -0.00784847 5.62928 -0.0137309 5.56189C-0.0196134 5.4945 -0.01176 5.42662 0.00935381 5.36235C0.0304676 5.29809 0.0644028 5.23877 0.109105 5.188L3.80911 0.563Z" fill="#007BFF"/>
<path fill-rule="evenodd" clip-rule="evenodd" d="M0.124907 5.17C0.171762 5.11667 0.229438 5.07392 0.294097 5.04461C0.358755 5.0153 0.428915 5.00009 0.499907 5H5.99991C6.13252 5 6.25969 5.05268 6.35346 5.14645C6.44723 5.24021 6.49991 5.36739 6.49991 5.5C6.49991 5.89782 6.65794 6.27936 6.93925 6.56066C7.22055 6.84196 7.60208 7 7.99991 7C8.39773 7 8.77926 6.84196 9.06057 6.56066C9.34187 6.27936 9.49991 5.89782 9.49991 5.5C9.49991 5.36739 9.55259 5.24021 9.64635 5.14645C9.74012 5.05268 9.8673 5 9.99991 5H15.4999C15.5708 5.00002 15.6409 5.01511 15.7055 5.04427C15.7701 5.07343 15.8277 5.116 15.8746 5.16915C15.9216 5.22229 15.9566 5.2848 15.9775 5.35253C15.9984 5.42026 16.0047 5.49166 15.9959 5.562L15.6059 8.686C15.5606 9.04889 15.3842 9.38271 15.11 9.62469C14.8358 9.86667 14.4826 10.0001 14.1169 10H1.88291C1.5172 10.0001 1.16403 9.86667 0.889823 9.62469C0.615615 9.38271 0.439256 9.04889 0.393907 8.686L0.00390735 5.562C-0.00493837 5.49166 0.00127556 5.42024 0.0221368 5.35249C0.0429981 5.28473 0.0780298 5.22218 0.124907 5.169V5.17ZM1.06591 6L1.38591 8.562C1.40106 8.68325 1.46008 8.79475 1.55184 8.87545C1.64359 8.95615 1.76172 9.00045 1.88391 9H14.1179C14.2398 8.99997 14.3574 8.95544 14.4487 8.87479C14.5401 8.79413 14.5988 8.68291 14.6139 8.562L14.9329 6H10.4499C10.3351 6.56514 10.0285 7.07324 9.58204 7.43819C9.13553 7.80314 8.57659 8.00251 7.99991 8.00251C7.42323 8.00251 6.86428 7.80314 6.41778 7.43819C5.97127 7.07324 5.66467 6.56514 5.54991 6H1.06591Z" fill="#007BFF"/>
</g>
<defs>
<clipPath id="clip0">
<rect width="16" height="16" fill="white"/>
</clipPath>
</defs>
</svg>
