<svg width="16" height="16" viewBox="0 0 16 16" fill="none" xmlns="http://www.w3.org/2000/svg">
<g clip-path="url(#clip0)">
<path fill-rule="evenodd" clip-rule="evenodd" d="M2 5V12.5C2 13.364 2.642 14 3.357 14H12.643C13.358 14 14 13.364 14 12.5V5H15V12.5C15 13.845 13.979 15 12.643 15H3.357C2.021 15 1 13.845 1 12.5V5H2Z" fill="#007BFF"/>
<path fill-rule="evenodd" clip-rule="evenodd" d="M5.5 7.5C5.5 7.36739 5.55268 7.24021 5.64645 7.14645C5.74021 7.05268 5.86739 7 6 7H10C10.1326 7 10.2598 7.05268 10.3536 7.14645C10.4473 7.24021 10.5 7.36739 10.5 7.5C10.5 7.63261 10.4473 7.75979 10.3536 7.85355C10.2598 7.94732 10.1326 8 10 8H6C5.86739 8 5.74021 7.94732 5.64645 7.85355C5.55268 7.75979 5.5 7.63261 5.5 7.5ZM15 2H1V4H15V2ZM1 1C0.734784 1 0.48043 1.10536 0.292893 1.29289C0.105357 1.48043 0 1.73478 0 2L0 4C0 4.26522 0.105357 4.51957 0.292893 4.70711C0.48043 4.89464 0.734784 5 1 5H15C15.2652 5 15.5196 4.89464 15.7071 4.70711C15.8946 4.51957 16 4.26522 16 4V2C16 1.73478 15.8946 1.48043 15.7071 1.29289C15.5196 1.10536 15.2652 1 15 1H1Z" fill="#007BFF"/>
</g>
<defs>
<clipPath id="clip0">
<rect width="16" height="16" fill="white"/>
</clipPath>
</defs>
</svg>
