<svg width="16" height="16" viewBox="0 0 16 16" fill="none" xmlns="http://www.w3.org/2000/svg">
<g opacity="0.54">
<g opacity="0.54">
<path fill-rule="evenodd" clip-rule="evenodd" d="M14.3551 11.3541C14.3086 11.4006 14.2534 11.4376 14.1927 11.4628C14.1319 11.488 14.0668 11.501 14.0011 11.501C13.9353 11.501 13.8702 11.488 13.8094 11.4628C13.7487 11.4376 13.6935 11.4006 13.6471 11.3541L8.00106 5.70708L2.35506 11.3541C2.30857 11.4006 2.25338 11.4374 2.19264 11.4626C2.1319 11.4878 2.0668 11.5007 2.00106 11.5007C1.93532 11.5007 1.87022 11.4878 1.80948 11.4626C1.74874 11.4374 1.69355 11.4006 1.64706 11.3541C1.60057 11.3076 1.56369 11.2524 1.53854 11.1917C1.51338 11.1309 1.50043 11.0658 1.50043 11.0001C1.50043 10.9343 1.51338 10.8692 1.53854 10.8085C1.56369 10.7478 1.60057 10.6926 1.64706 10.6461L7.64706 4.64608C7.69351 4.59952 7.74868 4.56258 7.80943 4.53737C7.87017 4.51216 7.93529 4.49919 8.00106 4.49919C8.06683 4.49919 8.13195 4.51216 8.19269 4.53737C8.25344 4.56258 8.30861 4.59952 8.35506 4.64608L14.3551 10.6461C14.4016 10.6925 14.4386 10.7477 14.4638 10.8084C14.489 10.8692 14.502 10.9343 14.502 11.0001C14.502 11.0659 14.489 11.131 14.4638 11.1917C14.4386 11.2525 14.4016 11.3076 14.3551 11.3541Z" fill="#171818"/>
</g>
</g>
</svg>
