<svg width="48" height="48" viewBox="0 0 48 48" fill="none" xmlns="http://www.w3.org/2000/svg">
<g clip-path="url(#clip0)">
<path fill-rule="evenodd" clip-rule="evenodd" d="M13.62 0.438C13.9011 0.157593 14.2819 8.43569e-05 14.679 0L33.321 0C33.7181 8.43569e-05 34.0989 0.157593 34.38 0.438L47.562 13.62C47.8424 13.9011 47.9999 14.2819 48 14.679V33.321C47.9999 33.7181 47.8424 34.0989 47.562 34.38L34.38 47.562C34.0989 47.8424 33.7181 47.9999 33.321 48H14.679C14.2819 47.9999 13.9011 47.8424 13.62 47.562L0.438 34.38C0.157593 34.0989 8.43569e-05 33.7181 0 33.321L0 14.679C8.43569e-05 14.2819 0.157593 13.9011 0.438 13.62L13.62 0.438ZM15.3 3L3 15.3V32.7L15.3 45H32.7L45 32.7V15.3L32.7 3H15.3Z" fill="#EE1A26"/>
<path d="M21.0059 33.0004C21.0059 32.6064 21.0835 32.2163 21.2342 31.8523C21.385 31.4883 21.606 31.1576 21.8845 30.879C22.1631 30.6005 22.4938 30.3795 22.8578 30.2287C23.2218 30.0779 23.6119 30.0004 24.0059 30.0004C24.3998 30.0004 24.7899 30.0779 25.1539 30.2287C25.5179 30.3795 25.8486 30.6005 26.1272 30.879C26.4058 31.1576 26.6267 31.4883 26.7775 31.8523C26.9283 32.2163 27.0059 32.6064 27.0059 33.0004C27.0059 33.796 26.6898 34.5591 26.1272 35.1217C25.5646 35.6843 24.8015 36.0004 24.0059 36.0004C23.2102 36.0004 22.4471 35.6843 21.8845 35.1217C21.3219 34.5591 21.0059 33.796 21.0059 33.0004ZM21.2999 14.9854C21.2599 14.6069 21.3 14.2242 21.4175 13.8622C21.5349 13.5002 21.7272 13.167 21.9818 12.8841C22.2364 12.6012 22.5476 12.375 22.8953 12.2202C23.243 12.0654 23.6193 11.9854 23.9999 11.9854C24.3804 11.9854 24.7568 12.0654 25.1044 12.2202C25.4521 12.375 25.7633 12.6012 26.0179 12.8841C26.2725 13.167 26.4648 13.5002 26.5823 13.8622C26.6997 14.2242 26.7398 14.6069 26.6999 14.9854L25.6499 25.5064C25.6146 25.9197 25.4255 26.3047 25.1199 26.5853C24.8144 26.8658 24.4147 27.0215 23.9999 27.0215C23.585 27.0215 23.1853 26.8658 22.8798 26.5853C22.5743 26.3047 22.3851 25.9197 22.3499 25.5064L21.2999 14.9854Z" fill="#EE1A26"/>
</g>
<defs>
<clipPath id="clip0">
<rect width="48" height="48" fill="white"/>
</clipPath>
</defs>
</svg>
